<svg id="Layer_1" data-name="Layer 1" xmlns="http://www.w3.org/2000/svg" viewBox="0 0 143 345.11"><title>double facing arrow</title><path d="M80.91,37V309.33c2.72-2.77,5-5.07,7.22-7.33L123,267.19c4.6-4.59,10.35-5,14.41-1s3.8,9.94-.69,14.42q-29.07,29-58.17,58c-4.79,4.78-10.17,4.82-14.91.09Q34.4,309.62,5.26,280.42c-4.3-4.3-4.44-10.26-.48-14.2s9.77-3.68,14.17.71c13.92,13.91,27.83,27.84,42.15,42.17V36c-4.64,4.77-8.73,9.07-12.91,13.27q-14.49,14.57-29,29.06c-4.61,4.59-10.33,4.92-14.39.86S1,69.31,5.56,64.76Q34.21,36.05,62.92,7.38c5.6-5.6,10.8-5.53,16.43.09Q108,36.17,136.71,64.85c4,4.06,4.68,9.1,1.74,13.15-3.66,5-10.3,5.39-15,.69Q105.49,60.84,87.64,42.92c-2.06-2.06-4-4.24-6-6.36Z"/></svg>