<svg id="Layer_1" data-name="Layer 1" xmlns="http://www.w3.org/2000/svg" viewBox="0 0 550 550"><defs><style>.cls-1{fill:#fff;}</style></defs><title>supportUs_white</title><path class="cls-1" d="M515.81,353.44A76.64,76.64,0,0,0,472,350.79c-14.24,3.28-27.09,9.92-39.78,16.86-2.7,1.47-3.67,1.15-5.13-1.55C418.9,350.86,406.05,343,388.64,343q-52.23,0-104.47,0a9.61,9.61,0,0,1-6.82-2.23,87.11,87.11,0,0,0-19-11.91c-22.21-10.67-46.06-15-70.23-17.85a631.63,631.63,0,0,0-76.31-3.95c-3.53,0-4-1.24-3.92-4.25.2-6.16.1-12.33,0-18.49-.06-8.53-4.79-13.34-13.27-13.35q-35-.06-70,0C16.89,271,12,275.89,12,283.82Q12,385,12,486.27c0,7.64,4.87,12.66,12.38,12.69q35.49.14,71,0C103,499,107.84,494,108,486.46c.1-5.32,0-10.64,0-16.72,10.18,6.81,19.61,13.3,29.21,19.51,65.92,42.67,136.3,51.07,210.42,26.07C406.16,495.59,459.25,465,510.52,431c6.66-4.41,13.31-8.86,18.74-14.84C548.75,394.73,542.06,362.87,515.81,353.44ZM84.07,471c0,3.25-.78,4.15-4.07,4.1q-20-.29-40,0c-3.26.05-4.1-.82-4.09-4.09.14-28.66.08-57.32.08-86,0-28.5.08-57-.1-85.49,0-3.72.84-4.7,4.6-4.62,13.16.26,26.33.21,39.49,0,3.26-.05,4.09.82,4.09,4.08Q83.92,385,84.07,471Zm428.16-72a30.33,30.33,0,0,1-5.91,5.34c-55.65,38.71-113.9,72.74-179.39,91.83-61.54,17.93-120.2,10.11-174.35-25.35-14.33-9.39-28.29-19.35-42.47-29a4.27,4.27,0,0,1-2.16-4q.09-52,0-104c0-2.06.39-2.93,2.71-2.89,39.32.68,78.64,1.35,116.92,12,15,4.17,29.24,10.06,40.75,21.12,2.69,2.59,6.13,3,9.74,3q55.76-.07,111.49,0c13.33,0,21.82,12.21,17.29,24.47-2.63,7.15-9.13,11.47-17.59,11.48q-38.25.07-76.5,0-47.74,0-95.49,0c-7.4,0-12.47,3.93-13.29,10.15-1,7.78,4.33,13.78,12.62,13.81,18.33.08,36.67,0,55,0H388.09c19.86,0,34.29-9.8,41.62-28.3a6.27,6.27,0,0,1,2.51-3.5c14.84-9,30.12-17,47.08-21.19,8.83-2.19,17.6-1,26.15,1.4C516.68,378.52,519.87,389.92,512.23,399Z"/><path class="cls-1" d="M330.07,25C260.76,25,204.15,81.39,204,150.66,203.86,220.2,260.43,277,329.91,277c69.28,0,125.93-56.42,126.08-125.67C456.15,81.81,399.56,25.05,330.07,25Zm-.15,228A102,102,0,1,1,432,151.19,101.82,101.82,0,0,1,329.92,253Z"/><path class="cls-1" d="M318.57,187c6.17,0,12.34.12,18.5,0,6.34-.16,9.64-2.87,10.71-8.37,1.21-6.26-1.11-11.07-6.65-13.58-3.71-1.68-7.67-2-11.7-2a44.7,44.7,0,0,1-24.15-6.87c-12.11-7.71-18.81-18.6-17-33.12,1.89-15,10.39-25.4,24.94-30,3.9-1.25,5-2.79,4.87-6.74-.3-7.62,4-12.7,10.55-13.3,7.84-.72,13.51,4.6,13.22,13.14-.15,4.25,1.05,5.43,5.17,5.06A110.35,110.35,0,0,1,360,91c7,.2,12,5.23,12,12s-5,11.87-12.07,12c-11.83.14-23.67,0-35.5.05-8,0-11.62,2.78-12.42,9.29-.88,7.2,2.51,11.8,10,13.79,5.86,1.57,12,.45,17.85,1.87,14.88,3.61,26.42,11.3,30.89,26.6,5,17.21-5.53,36.55-23,42.21-4.54,1.47-6.17,3.14-5.94,8a11.47,11.47,0,0,1-11.06,12.33c-7.21.39-13.07-4.74-12.62-12.22.34-5.47-1.73-6.33-6.35-5.91a97.88,97.88,0,0,1-12,0c-7-.24-12-5.34-11.92-12.1s5-11.71,12.16-11.84c6.17-.12,12.34,0,18.5,0Z"/></svg>